<svg xmlns="http://www.w3.org/2000/svg" width="50.619" height="48.201" viewBox="0 0 50.619 48.201">
  <g id="Group_245" data-name="Group 245" transform="translate(209.879 -206.056)" opacity="0.2">
    <path id="Path_475" data-name="Path 475" d="M-196.086,246.293c-3.144,1.849-10.94,7.134-10.986,7.069-.389-.554-1.142-1.527-1.9-1.527s-.974.84-.89,1.466c.12.9,1.429,3.051,2.9,3.047a.785.785,0,0,0,.709-.659,2.643,2.643,0,0,0-.388-1.623c3.4-1.592,8.48-3.815,11.837-5.632C-194.122,248.065-195.48,245.937-196.086,246.293Z" transform="translate(0 -12.239)" fill="#e1e1ff"/>
    <path id="Path_476" data-name="Path 476" d="M-165.281,220.831c1.532-3.31,4.933-12.094,5.007-12.066.636.235,1.808.606,2.432.174s.323-1.244-.1-1.711c-.613-.674-2.912-1.7-4.118-.855a.785.785,0,0,0-.207.945,2.632,2.632,0,0,0,1.243,1.114c-1.888,3.244-4.8,7.964-6.526,11.369C-167.9,220.492-165.576,221.469-165.281,220.831Z" transform="translate(-12.876 0)" fill="#e1e1ff"/>
    <path id="Path_477" data-name="Path 477" d="M-161.114,253.373c2.191,2.916,8.319,10.069,8.259,10.121-.507.449-1.389,1.306-1.3,2.06s.943.873,1.557.719c.883-.222,2.871-1.763,2.7-3.222a.785.785,0,0,0-.734-.63,2.634,2.634,0,0,0-1.569.568c-1.964-3.2-4.744-8-6.927-11.129C-159.574,251.223-161.536,252.811-161.114,253.373Z" transform="translate(-14.829 -13.901)" fill="#e1e1ff"/>
    <path id="Path_478" data-name="Path 478" d="M-159.515,243.842c3.575.723,12.908,2,12.9,2.075-.081.673-.17,1.9.394,2.407s1.285.026,1.641-.5c.513-.753.974-3.226-.122-4.2a.784.784,0,0,0-.967.017,2.634,2.634,0,0,0-.8,1.467c-3.592-1.085-8.859-2.825-12.571-3.714C-159.792,241.211-160.2,243.7-159.515,243.842Z" transform="translate(-15.227 -10.756)" fill="#e1e1ff"/>
    <path id="Path_479" data-name="Path 479" d="M-190.533,227.2c-3.011-2.06-11.11-6.867-11.07-6.937.337-.587.9-1.682.574-2.37s-1.173-.524-1.7-.182c-.766.493-2.153,2.592-1.525,3.919a.785.785,0,0,0,.9.361,2.636,2.636,0,0,0,1.3-1.041c2.886,2.4,7.059,6.053,10.131,8.318C-191.3,229.729-189.953,227.6-190.533,227.2Z" transform="translate(-1.662 -3.459)" fill="#e1e1ff"/>
    <path id="Path_480" data-name="Path 480" d="M-185.877,215.53c5.139-1.364,10.775.364,15.01,3.368,4.084,2.895,8.241,8.01,8.482,13.238.52,11.256-11.35,19.522-20.721,17.317-9.961-2.345-16.82-14.148-13.38-23.809A15.892,15.892,0,0,1-185.877,215.53Z" transform="translate(-3.804 -2.741)" fill="#e1e1ff"/>
    <path id="Path_481" data-name="Path 481" d="M-179.409,249.318c-4.661-.108-8.986-2.941-11.816-6.507-2.732-3.437-4.981-8.761-3.906-13.223,2.315-9.606,14.333-13.664,21.685-9.516,7.815,4.411,10.705,16.028,5.446,23.323A13.937,13.937,0,0,1-179.409,249.318Z" transform="translate(-4.407 -3.775)" fill="#fff"/>
    <path id="Path_482" data-name="Path 482" d="M-181.646,260.666c-.842,2.308-2.628,8.392-2.68,8.377-.44-.122-1.247-.3-1.641.02s-.147.853.166,1.143c.449.417,2.049.973,2.811.342a.529.529,0,0,0,.086-.646,1.777,1.777,0,0,0-.9-.677c1.084-2.282,2.772-5.613,3.738-7.994C-179.866,260.746-181.483,260.222-181.646,260.666Z" transform="translate(-7.218 -16.576)" fill="#fff"/>
    <path id="Path_483" data-name="Path 483" d="M-194.675,241.024c-2.455.046-8.775.572-8.78.519-.045-.454-.166-1.273-.611-1.524s-.849.17-1.006.566c-.227.57-.17,2.262.693,2.745a.529.529,0,0,0,.634-.153,1.772,1.772,0,0,0,.308-1.08c2.52.189,6.235.563,8.8.606C-194.108,242.712-194.2,241.015-194.675,241.024Z" transform="translate(-1.429 -10.317)" fill="#fff"/>
    <path id="Path_484" data-name="Path 484" d="M-185.772,220.381c-1.153-2.168-4.483-7.565-4.438-7.593.385-.246,1.06-.724,1.082-1.235s-.536-.679-.96-.641c-.611.056-2.094.874-2.134,1.862a.528.528,0,0,0,.423.5,1.771,1.771,0,0,0,1.1-.214c.972,2.333,2.321,5.814,3.446,8.125C-187.021,221.651-185.55,220.8-185.772,220.381Z" transform="translate(-5.376 -1.477)" fill="#fff"/>
    <path id="Path_485" data-name="Path 485" d="M-173.928,220.954c.16-2.45.167-8.792.22-8.792.456-.006,1.283-.058,1.57-.481s-.1-.86-.479-1.05c-.549-.275-2.24-.359-2.794.46a.529.529,0,0,0,.1.644,1.771,1.771,0,0,0,1.05.4c-.4,2.495-1.085,6.165-1.343,8.722C-175.657,221.377-173.959,221.426-173.928,220.954Z" transform="translate(-10.435 -1.335)" fill="#fff"/>
    <path id="Path_486" data-name="Path 486" d="M-159.106,232.944c2.244-1,7.864-3.933,7.89-3.887.217.4.647,1.109,1.154,1.168s.716-.487.707-.913c-.011-.613-.722-2.151-1.7-2.26a.529.529,0,0,0-.524.386,1.775,1.775,0,0,0,.135,1.116c-2.4.8-5.964,1.9-8.349,2.859C-160.284,231.608-159.539,233.136-159.106,232.944Z" transform="translate(-15.199 -6.393)" fill="#fff"/>
    <path id="Path_487" data-name="Path 487" d="M-163.935,256.636c.888,2.29,3.555,8.043,3.506,8.067-.41.2-1.138.593-1.221,1.1s.452.738.877.75c.613.018,2.183-.619,2.34-1.595a.529.529,0,0,0-.361-.543,1.77,1.77,0,0,0-1.12.082c-.689-2.432-1.616-6.048-2.459-8.476C-162.544,255.524-164.106,256.2-163.935,256.636Z" transform="translate(-13.984 -15.159)" fill="#fff"/>
    <path id="Path_488" data-name="Path 488" d="M-185.244,246.573a5.839,5.839,0,0,1-4.247-2.338,6.042,6.042,0,0,1-1.4-4.753,5.578,5.578,0,0,1,7.793-3.42,6.035,6.035,0,0,1,1.957,8.383A5.009,5.009,0,0,1-185.244,246.573Z" transform="translate(-5.75 -8.959)" fill="#e1e1ff"/>
    <path id="Path_489" data-name="Path 489" d="M-170.965,246.687a4.431,4.431,0,0,1,2.369-2.816,4.589,4.589,0,0,1,3.745-.343,4.234,4.234,0,0,1,1.395,6.308,4.58,4.58,0,0,1-6.53.218A3.8,3.8,0,0,1-170.965,246.687Z" transform="translate(-11.823 -11.328)" fill="#e1e1ff"/>
    <path id="Path_490" data-name="Path 490" d="M-172.017,233.461a2.842,2.842,0,0,1,1.519-1.806,2.942,2.942,0,0,1,2.4-.22,2.716,2.716,0,0,1,.894,4.046,2.938,2.938,0,0,1-4.189.14A2.438,2.438,0,0,1-172.017,233.461Z" transform="translate(-11.512 -7.675)" fill="#e1e1ff"/>
  </g>
</svg>
