<svg id="Nearby-icon" xmlns="http://www.w3.org/2000/svg" xmlns:xlink="http://www.w3.org/1999/xlink" width="45" height="45" viewBox="0 0 45 45">
  <defs>
    <clipPath id="clip-path">
      <rect id="Rectangle_196" data-name="Rectangle 196" width="45" height="45" transform="translate(32 889)" fill="#fff"/>
    </clipPath>
  </defs>
  <g id="Mask_Group_5" data-name="Mask Group 5" transform="translate(-32 -889)" clip-path="url(#clip-path)">
    <g id="Group_280" data-name="Group 280" transform="translate(172.432 974.403)">
      <path id="Path_516" data-name="Path 516" d="M-101.477,147.225c-.008.127-.116.144-.194.183q-1.183.6-2.368,1.186-2.631,1.316-5.26,2.635a.491.491,0,0,1-.5,0q-3.706-1.863-7.417-3.714a.5.5,0,0,0-.5,0q-3.3,1.657-6.6,3.3c-.266.133-.539.251-.794.4a.5.5,0,0,1-.542-.005q-3.1-1.561-6.2-3.107c-.461-.231-.919-.468-1.385-.688-.185-.087-.235-.169-.134-.37q2.938-5.856,5.86-11.719c.1-.209.176-.173.312-.036,1.207,1.213,2.421,2.42,3.625,3.635a.277.277,0,0,0,.429.044c1.834-1.235,3.676-2.457,5.513-3.688a.274.274,0,0,1,.356,0q2.775,1.859,5.553,3.712a.223.223,0,0,0,.339-.028c.392-.39.4-.385.642.1s.474.951.721,1.421c.077.146.09.262-.052.366a.307.307,0,0,0-.107.35q.7,3.479,1.391,6.96c.041.209.114.211.28.128q1.9-.96,3.817-1.9c.194-.1.2-.181.111-.355-.515-1.009-1.017-2.024-1.533-3.033a.511.511,0,0,1,0-.525c.351-.663.685-1.334,1.028-2,.031-.061.048-.153.125-.157s.1.09.127.15q1.653,3.3,3.3,6.6C-101.517,147.128-101.5,147.179-101.477,147.225Zm-22.3.73a.174.174,0,0,0,.158-.025q2.421-1.209,4.842-2.417a.3.3,0,0,0,.179-.316q0-3.152,0-6.3c0-.059.032-.139-.033-.171s-.112.037-.162.07q-1.736,1.155-3.472,2.311a.454.454,0,0,0-.205.321c-.111.583-.231,1.164-.347,1.745Zm12.613.011a.471.471,0,0,0,0-.08q-.648-3.249-1.3-6.5a.436.436,0,0,0-.211-.292q-1.737-1.154-3.471-2.311c-.049-.032-.092-.09-.174-.058,0,.036-.009.074-.009.112,0,2.125,0,4.249,0,6.373,0,.186.093.257.235.328q2.359,1.175,4.715,2.356A.366.366,0,0,0-111.166,147.966Zm-13.554-6.875c.029-.1-.059-.153-.123-.218-.59-.592-1.186-1.178-1.769-1.777-.154-.158-.2-.108-.284.06-.622,1.26-1.253,2.516-1.882,3.772l-1.531,3.058c-.146.292-.146.293.154.443,1.243.622,2.488,1.241,3.728,1.868.184.093.273.072.292-.141A1.517,1.517,0,0,1-126.1,148q.481-2.4.962-4.8C-125,142.5-124.862,141.806-124.72,141.091Z" transform="translate(0 -200.702)"/>
      <path id="Path_517" data-name="Path 517" d="M309.253-70.369a5.084,5.084,0,0,1,4.569-5.008,5.126,5.126,0,0,1,5.577,4.452,5.036,5.036,0,0,1-.521,2.931q-2.2,4.31-4.4,8.619c-.036.071-.044.191-.15.185-.085,0-.1-.112-.133-.178q-2.2-4.321-4.4-8.644A4.863,4.863,0,0,1,309.253-70.369Zm7.9.062a2.779,2.779,0,0,0-2.809-2.811,2.785,2.785,0,0,0-2.817,2.83,2.779,2.779,0,0,0,2.824,2.8A2.776,2.776,0,0,0,317.149-70.307Z" transform="translate(-421.905 0)"/>
    </g>
  </g>
</svg>
