<svg id="News-icon" xmlns="http://www.w3.org/2000/svg" xmlns:xlink="http://www.w3.org/1999/xlink" width="45" height="45" viewBox="0 0 45 45">
  <defs>
    <clipPath id="clip-path">
      <rect id="Rectangle_196" data-name="Rectangle 196" width="45" height="45" transform="translate(32 889)" fill="#fff"/>
    </clipPath>
  </defs>
  <g id="Mask_Group_5" data-name="Mask Group 5" transform="translate(-32 -889)" clip-path="url(#clip-path)">
    <g id="Group_281" data-name="Group 281" transform="translate(39 839)">
      <path id="Path_524" data-name="Path 524" d="M29.31,66.308H26.656V63.691A2.688,2.688,0,0,0,24,61H2.654A2.657,2.657,0,0,0,0,63.654V79.577A4.428,4.428,0,0,0,4.423,84H25.772a4.428,4.428,0,0,0,4.423-4.423V67.192A.885.885,0,0,0,29.31,66.308Zm-6.192-2.654a.884.884,0,0,1,.91-.884.91.91,0,0,1,.859.921V76.923H23.118ZM1.769,79.577V63.654a.886.886,0,0,1,.885-.885H21.5a2.654,2.654,0,0,0-.151.885V79.577a4.4,4.4,0,0,0,.887,2.654H4.423A2.657,2.657,0,0,1,1.769,79.577Zm26.656,0a2.654,2.654,0,1,1-5.308,0v-.885h2.654a.885.885,0,0,0,.885-.885V68.077h1.769Z" stroke="#000" stroke-width="0.5"/>
      <path id="Path_525" data-name="Path 525" d="M75.156,121H60.885a.885.885,0,0,0,0,1.769H75.156a.885.885,0,0,0,0-1.769Z" transform="translate(-56.462 -56.462)" stroke="#000" stroke-width="0.5"/>
      <path id="Path_526" data-name="Path 526" d="M75.156,181H60.885a.885.885,0,1,0,0,1.769H75.156a.885.885,0,1,0,0-1.769Z" transform="translate(-56.462 -112.923)" stroke="#000" stroke-width="0.5"/>
      <path id="Path_527" data-name="Path 527" d="M69.021,241H61.885a.885.885,0,0,0-.885.885v7.077a.885.885,0,0,0,.885.885h7.136a.885.885,0,0,0,.885-.885v-7.077A.885.885,0,0,0,69.021,241Zm-.885,7.077H62.769v-5.308h5.367Z" transform="translate(-57.403 -169.385)" stroke="#000" stroke-width="0.5"/>
      <path id="Path_528" data-name="Path 528" d="M245.482,241h-3.6a.885.885,0,0,0,0,1.769h3.6a.885.885,0,1,0,0-1.769Z" transform="translate(-226.787 -169.385)" stroke="#000" stroke-width="0.5"/>
      <path id="Path_529" data-name="Path 529" d="M245.482,301h-3.6a.885.885,0,0,0,0,1.769h3.6a.885.885,0,1,0,0-1.769Z" transform="translate(-226.787 -225.846)" stroke="#000" stroke-width="0.5"/>
      <path id="Path_530" data-name="Path 530" d="M245.482,361h-3.6a.885.885,0,1,0,0,1.769h3.6a.885.885,0,1,0,0-1.769Z" transform="translate(-226.787 -282.308)" stroke="#000" stroke-width="0.5"/>
    </g>
  </g>
</svg>
