<svg id="Stats-icon-clicked" xmlns="http://www.w3.org/2000/svg" xmlns:xlink="http://www.w3.org/1999/xlink" width="45" height="45" viewBox="0 0 45 45">
  <defs>
    <clipPath id="clip-path">
      <rect id="Rectangle_195" data-name="Rectangle 195" width="45" height="45" transform="translate(32 889)" fill="#fff" stroke="#707070" stroke-width="1"/>
    </clipPath>
  </defs>
  <g id="Mask_Group_4" data-name="Mask Group 4" transform="translate(-32 -889)" clip-path="url(#clip-path)">
    <g id="Group_277" data-name="Group 277" transform="translate(386.808 714.765)">
      <path id="Path_520" data-name="Path 520" d="M-330.79,209.356h-2.06c-.369-.055-.74-.1-1.108-.167a12.039,12.039,0,0,1-9.452-8.633,16.522,16.522,0,0,1-.4-2.158v-2.06c.05-.347.087-.7.151-1.04a11.838,11.838,0,0,1,5.022-7.822,11.607,11.607,0,0,1,6.514-2.112c.316-.007.318,0,.319.3q0,3.98,0,7.959c0,1.147,0,2.294,0,3.441,0,.214.069.3.284.284s.421,0,.632,0h10.745c.327,0,.326,0,.328.318a8.594,8.594,0,0,1-.189,1.858,11.865,11.865,0,0,1-8.63,9.426A13.134,13.134,0,0,1-330.79,209.356Zm-3.059-16.526q0-2.422,0-4.845c0-.365-.016-.379-.374-.285a10.649,10.649,0,0,0-1.827.651,9.957,9.957,0,0,0-5.645,10.278,9.841,9.841,0,0,0,1.97,4.789c.173.229.178.226.382.023q2.648-2.648,5.3-5.293a.634.634,0,0,0,.2-.5C-333.851,196.045-333.848,194.437-333.848,192.83Zm2.036,14.5a9.485,9.485,0,0,0,2.95-.459,9.881,9.881,0,0,0,6.713-7.117c.1-.342.074-.359-.279-.359q-4.833,0-9.667,0a.686.686,0,0,0-.531.227q-2.385,2.4-4.78,4.786c-.177.177-.347.36-.532.527-.138.125-.126.214.024.307.046.029.085.068.129.1A9.972,9.972,0,0,0-331.812,207.331Z" transform="translate(0 -0.121)" fill="#77f" stroke="#77f" stroke-width="0.8"/>
      <path id="Path_521" data-name="Path 521" d="M38.963,190.27c0-1.575,0-3.15,0-4.726,0-.23.059-.317.3-.309.483.017.967.017,1.45,0,.241-.008.3.08.3.31-.007,1.8,0,3.6,0,5.4q0,2,0,4c0,.319-.014.333-.326.335-.476,0-.952,0-1.427.007-.217,0-.3-.068-.3-.3C38.967,193.421,38.963,191.846,38.963,190.27Z" transform="translate(-364.807)" fill="#77f" stroke="#77f" stroke-width="0.8"/>
      <path id="Path_522" data-name="Path 522" d="M125.938,252.667c0,1.076-.005,2.152,0,3.227,0,.227-.078.3-.3.3-.483-.009-.967-.006-1.45,0-.211,0-.308-.058-.307-.292q.01-3.239,0-6.478c0-.2.052-.3.276-.289.506.014,1.013.011,1.52,0,.193,0,.257.064.256.256C125.934,250.484,125.938,251.575,125.938,252.667Z" transform="translate(-445.752 -60.901)" fill="#77f" stroke="#77f" stroke-width="0.8"/>
      <path id="Path_523" data-name="Path 523" d="M-44.56,315.032c0,.577-.005,1.154,0,1.731,0,.209-.072.294-.286.291-.507-.008-1.014-.005-1.52,0-.2,0-.275-.082-.274-.279q.007-1.754,0-3.508c0-.2.065-.279.272-.274.514.011,1.029.011,1.544,0,.193,0,.265.069.263.258-.005.592,0,1.185,0,1.778Z" transform="translate(-283.227 -121.764)" fill="#77f" stroke="#77f" stroke-width="0.8"/>
      <path id="Path_535" data-name="Path 535" d="M1623,912.987s2.874-11.16,8.552-11.16a41.054,41.054,0,0,1,1.37,11.16h11.748s0,8.811-9.006,10.181S1623,912.987,1623,912.987Z" transform="translate(-1965.808 -714.765)" fill="#77f" opacity="0.2"/>
    </g>
  </g>
</svg>
